<mxfile host="app.diagrams.net" modified="2023-12-17T11:20:49.697Z" agent="Mozilla/5.0 (Windows NT 10.0; Win64; x64) AppleWebKit/537.36 (KHTML, like Gecko) Chrome/120.0.0.0 Safari/537.36" etag="PLEM0vXumgQxM_O8GRYy" version="22.1.11" type="device">
  <diagram name="Page-1" id="ZR6YPkfCKl_PK5OQMqdv">
    <mxGraphModel dx="1059" dy="949" grid="1" gridSize="10" guides="1" tooltips="1" connect="1" arrows="1" fold="1" page="1" pageScale="1" pageWidth="850" pageHeight="1100" math="0" shadow="0">
      <root>
        <mxCell id="0" />
        <mxCell id="1" parent="0" />
        <mxCell id="elQRYcjludwM-4nkRHjC-1" value="TRANSPORTATION_HUB" style="rounded=0;whiteSpace=wrap;html=1;" vertex="1" parent="1">
          <mxGeometry x="1605" y="340" width="145" height="60" as="geometry" />
        </mxCell>
        <mxCell id="elQRYcjludwM-4nkRHjC-2" value="VEHICLE" style="rounded=0;whiteSpace=wrap;html=1;" vertex="1" parent="1">
          <mxGeometry x="2380" y="393" width="120" height="60" as="geometry" />
        </mxCell>
        <mxCell id="elQRYcjludwM-4nkRHjC-3" value="RIDE" style="rounded=0;whiteSpace=wrap;html=1;" vertex="1" parent="1">
          <mxGeometry x="1975" y="340" width="120" height="60" as="geometry" />
        </mxCell>
        <mxCell id="elQRYcjludwM-4nkRHjC-4" value="ASSIGNED" style="rhombus;whiteSpace=wrap;html=1;" vertex="1" parent="1">
          <mxGeometry x="2200" y="383" width="80" height="80" as="geometry" />
        </mxCell>
        <mxCell id="elQRYcjludwM-4nkRHjC-5" value="" style="endArrow=none;html=1;rounded=0;exitX=1;exitY=0.5;exitDx=0;exitDy=0;entryX=0;entryY=0.5;entryDx=0;entryDy=0;" edge="1" parent="1" source="elQRYcjludwM-4nkRHjC-4" target="elQRYcjludwM-4nkRHjC-2">
          <mxGeometry width="50" height="50" relative="1" as="geometry">
            <mxPoint x="2070" y="620" as="sourcePoint" />
            <mxPoint x="2120" y="570" as="targetPoint" />
          </mxGeometry>
        </mxCell>
        <mxCell id="elQRYcjludwM-4nkRHjC-6" value="" style="shape=link;html=1;rounded=0;strokeColor=none;entryX=0.5;entryY=0;entryDx=0;entryDy=0;" edge="1" parent="1">
          <mxGeometry width="100" relative="1" as="geometry">
            <mxPoint x="2035" y="620" as="sourcePoint" />
            <mxPoint x="2035" y="670" as="targetPoint" />
          </mxGeometry>
        </mxCell>
        <mxCell id="elQRYcjludwM-4nkRHjC-8" value="DEPARTURE_STATION" style="rhombus;whiteSpace=wrap;html=1;" vertex="1" parent="1">
          <mxGeometry x="1780" y="330" width="160" height="80" as="geometry" />
        </mxCell>
        <mxCell id="elQRYcjludwM-4nkRHjC-9" value="" style="shape=link;html=1;rounded=0;edgeStyle=orthogonalEdgeStyle;entryX=1;entryY=0.5;entryDx=0;entryDy=0;exitX=0;exitY=0.5;exitDx=0;exitDy=0;" edge="1" parent="1" source="elQRYcjludwM-4nkRHjC-3" target="elQRYcjludwM-4nkRHjC-8">
          <mxGeometry width="100" relative="1" as="geometry">
            <mxPoint x="2040" y="600" as="sourcePoint" />
            <mxPoint x="2140" y="600" as="targetPoint" />
          </mxGeometry>
        </mxCell>
        <mxCell id="elQRYcjludwM-4nkRHjC-10" value="" style="endArrow=none;html=1;rounded=0;edgeStyle=orthogonalEdgeStyle;exitX=1;exitY=0.5;exitDx=0;exitDy=0;entryX=0;entryY=0.5;entryDx=0;entryDy=0;" edge="1" parent="1" source="elQRYcjludwM-4nkRHjC-1" target="elQRYcjludwM-4nkRHjC-8">
          <mxGeometry width="50" height="50" relative="1" as="geometry">
            <mxPoint x="2070" y="620" as="sourcePoint" />
            <mxPoint x="2120" y="570" as="targetPoint" />
          </mxGeometry>
        </mxCell>
        <mxCell id="elQRYcjludwM-4nkRHjC-11" value="1" style="text;html=1;align=center;verticalAlign=middle;resizable=0;points=[];autosize=1;strokeColor=none;fillColor=none;" vertex="1" parent="1">
          <mxGeometry x="1745" y="338" width="30" height="30" as="geometry" />
        </mxCell>
        <mxCell id="elQRYcjludwM-4nkRHjC-12" value="N" style="text;html=1;align=center;verticalAlign=middle;resizable=0;points=[];autosize=1;strokeColor=none;fillColor=none;" vertex="1" parent="1">
          <mxGeometry x="1935" y="338" width="30" height="30" as="geometry" />
        </mxCell>
        <mxCell id="elQRYcjludwM-4nkRHjC-13" value="ARRIVAL_STATION" style="rhombus;whiteSpace=wrap;html=1;" vertex="1" parent="1">
          <mxGeometry x="1780" y="423" width="160" height="80" as="geometry" />
        </mxCell>
        <mxCell id="elQRYcjludwM-4nkRHjC-14" value="" style="endArrow=none;html=1;rounded=0;exitX=0;exitY=0.5;exitDx=0;exitDy=0;entryX=0.75;entryY=1;entryDx=0;entryDy=0;" edge="1" parent="1" source="elQRYcjludwM-4nkRHjC-13" target="elQRYcjludwM-4nkRHjC-1">
          <mxGeometry width="50" height="50" relative="1" as="geometry">
            <mxPoint x="1669.5" y="497.5" as="sourcePoint" />
            <mxPoint x="1719.5" y="447.5" as="targetPoint" />
          </mxGeometry>
        </mxCell>
        <mxCell id="elQRYcjludwM-4nkRHjC-15" value="" style="shape=link;html=1;rounded=0;edgeStyle=orthogonalEdgeStyle;exitX=1;exitY=0.5;exitDx=0;exitDy=0;entryX=0.25;entryY=1;entryDx=0;entryDy=0;" edge="1" parent="1" source="elQRYcjludwM-4nkRHjC-13" target="elQRYcjludwM-4nkRHjC-3">
          <mxGeometry width="100" relative="1" as="geometry">
            <mxPoint x="2040" y="600" as="sourcePoint" />
            <mxPoint x="2140" y="600" as="targetPoint" />
          </mxGeometry>
        </mxCell>
        <mxCell id="elQRYcjludwM-4nkRHjC-16" value="1" style="text;html=1;align=center;verticalAlign=middle;resizable=0;points=[];autosize=1;strokeColor=none;fillColor=none;" vertex="1" parent="1">
          <mxGeometry x="1770" y="433" width="30" height="30" as="geometry" />
        </mxCell>
        <mxCell id="elQRYcjludwM-4nkRHjC-17" value="N" style="text;html=1;align=center;verticalAlign=middle;resizable=0;points=[];autosize=1;strokeColor=none;fillColor=none;" vertex="1" parent="1">
          <mxGeometry x="1930" y="433" width="30" height="30" as="geometry" />
        </mxCell>
        <mxCell id="elQRYcjludwM-4nkRHjC-18" value="PASSENGER" style="rounded=0;whiteSpace=wrap;html=1;" vertex="1" parent="1">
          <mxGeometry x="1070" y="330" width="110" height="40" as="geometry" />
        </mxCell>
        <mxCell id="elQRYcjludwM-4nkRHjC-19" value="PAYMENT_CARD&lt;span id=&quot;docs-internal-guid-a368fe4d-7fff-fab8-b84e-1b425e451d34&quot;&gt;&lt;/span&gt;" style="rounded=0;whiteSpace=wrap;html=1;" vertex="1" parent="1">
          <mxGeometry x="1450" y="328" width="110" height="40" as="geometry" />
        </mxCell>
        <mxCell id="elQRYcjludwM-4nkRHjC-20" value="ATTACHED_TO" style="rhombus;whiteSpace=wrap;html=1;" vertex="1" parent="1">
          <mxGeometry x="1255" y="313" width="130" height="80" as="geometry" />
        </mxCell>
        <mxCell id="elQRYcjludwM-4nkRHjC-21" value="" style="shape=link;html=1;rounded=0;exitX=1;exitY=0.5;exitDx=0;exitDy=0;entryX=0;entryY=0.5;entryDx=0;entryDy=0;" edge="1" parent="1" source="elQRYcjludwM-4nkRHjC-18" target="elQRYcjludwM-4nkRHjC-20">
          <mxGeometry width="100" relative="1" as="geometry">
            <mxPoint x="1450" y="580" as="sourcePoint" />
            <mxPoint x="1550" y="580" as="targetPoint" />
          </mxGeometry>
        </mxCell>
        <mxCell id="elQRYcjludwM-4nkRHjC-22" value="" style="shape=link;html=1;rounded=0;exitX=1;exitY=0.5;exitDx=0;exitDy=0;entryX=0;entryY=0.5;entryDx=0;entryDy=0;" edge="1" parent="1" source="elQRYcjludwM-4nkRHjC-20" target="elQRYcjludwM-4nkRHjC-19">
          <mxGeometry width="100" relative="1" as="geometry">
            <mxPoint x="1380" y="397" as="sourcePoint" />
            <mxPoint x="1455" y="400" as="targetPoint" />
          </mxGeometry>
        </mxCell>
        <mxCell id="elQRYcjludwM-4nkRHjC-23" value="1" style="text;html=1;align=center;verticalAlign=middle;resizable=0;points=[];autosize=1;strokeColor=none;fillColor=none;" vertex="1" parent="1">
          <mxGeometry x="1225" y="320" width="30" height="30" as="geometry" />
        </mxCell>
        <mxCell id="elQRYcjludwM-4nkRHjC-24" value="1" style="text;html=1;align=center;verticalAlign=middle;resizable=0;points=[];autosize=1;strokeColor=none;fillColor=none;" vertex="1" parent="1">
          <mxGeometry x="1370" y="313" width="30" height="30" as="geometry" />
        </mxCell>
        <mxCell id="elQRYcjludwM-4nkRHjC-25" value="RIDE_HISTORY" style="rhombus;whiteSpace=wrap;html=1;" vertex="1" parent="1">
          <mxGeometry x="1655" y="785" width="210" height="70" as="geometry" />
        </mxCell>
        <mxCell id="elQRYcjludwM-4nkRHjC-26" value="" style="endArrow=none;html=1;rounded=0;exitX=1;exitY=1;exitDx=0;exitDy=0;entryX=0;entryY=0.5;entryDx=0;entryDy=0;" edge="1" parent="1" source="elQRYcjludwM-4nkRHjC-18" target="elQRYcjludwM-4nkRHjC-25">
          <mxGeometry width="50" height="50" relative="1" as="geometry">
            <mxPoint x="1470" y="600" as="sourcePoint" />
            <mxPoint x="1520" y="550" as="targetPoint" />
          </mxGeometry>
        </mxCell>
        <mxCell id="elQRYcjludwM-4nkRHjC-27" value="" style="endArrow=none;html=1;rounded=0;exitX=1;exitY=0.5;exitDx=0;exitDy=0;entryX=1;entryY=1;entryDx=0;entryDy=0;" edge="1" parent="1" source="elQRYcjludwM-4nkRHjC-25" target="elQRYcjludwM-4nkRHjC-3">
          <mxGeometry width="50" height="50" relative="1" as="geometry">
            <mxPoint x="1515" y="437" as="sourcePoint" />
            <mxPoint x="1970" y="670" as="targetPoint" />
            <Array as="points" />
          </mxGeometry>
        </mxCell>
        <mxCell id="elQRYcjludwM-4nkRHjC-28" value="M" style="text;html=1;align=center;verticalAlign=middle;resizable=0;points=[];autosize=1;strokeColor=none;fillColor=none;" vertex="1" parent="1">
          <mxGeometry x="1650" y="785" width="30" height="30" as="geometry" />
        </mxCell>
        <mxCell id="elQRYcjludwM-4nkRHjC-29" value="N" style="text;html=1;align=center;verticalAlign=middle;resizable=0;points=[];autosize=1;strokeColor=none;fillColor=none;" vertex="1" parent="1">
          <mxGeometry x="1845" y="780" width="30" height="30" as="geometry" />
        </mxCell>
        <mxCell id="elQRYcjludwM-4nkRHjC-30" value="&lt;b&gt;d&lt;/b&gt;" style="ellipse;whiteSpace=wrap;html=1;" vertex="1" parent="1">
          <mxGeometry x="2420" y="528" width="30" height="30" as="geometry" />
        </mxCell>
        <mxCell id="elQRYcjludwM-4nkRHjC-31" value="Vehicle_type" style="text;html=1;align=center;verticalAlign=middle;resizable=0;points=[];autosize=1;strokeColor=none;fillColor=none;" vertex="1" parent="1">
          <mxGeometry x="2440" y="476" width="90" height="30" as="geometry" />
        </mxCell>
        <mxCell id="elQRYcjludwM-4nkRHjC-32" value="SCOOTER" style="rounded=0;whiteSpace=wrap;html=1;" vertex="1" parent="1">
          <mxGeometry x="2500" y="687.5" width="80" height="35" as="geometry" />
        </mxCell>
        <mxCell id="elQRYcjludwM-4nkRHjC-33" value="MOPED" style="rounded=0;whiteSpace=wrap;html=1;" vertex="1" parent="1">
          <mxGeometry x="2320" y="700" width="80" height="35" as="geometry" />
        </mxCell>
        <mxCell id="elQRYcjludwM-4nkRHjC-34" value="" style="endArrow=none;html=1;rounded=0;entryX=0;entryY=1;entryDx=0;entryDy=0;exitX=0.464;exitY=-0.003;exitDx=0;exitDy=0;exitPerimeter=0;" edge="1" parent="1" source="elQRYcjludwM-4nkRHjC-33" target="elQRYcjludwM-4nkRHjC-30">
          <mxGeometry width="50" height="50" relative="1" as="geometry">
            <mxPoint x="2340" y="590" as="sourcePoint" />
            <mxPoint x="2390" y="540" as="targetPoint" />
          </mxGeometry>
        </mxCell>
        <mxCell id="elQRYcjludwM-4nkRHjC-35" value="" style="endArrow=none;html=1;rounded=0;exitX=1;exitY=1;exitDx=0;exitDy=0;entryX=0.5;entryY=0;entryDx=0;entryDy=0;" edge="1" parent="1" source="elQRYcjludwM-4nkRHjC-30" target="elQRYcjludwM-4nkRHjC-32">
          <mxGeometry width="50" height="50" relative="1" as="geometry">
            <mxPoint x="2420" y="650" as="sourcePoint" />
            <mxPoint x="2470" y="600" as="targetPoint" />
          </mxGeometry>
        </mxCell>
        <mxCell id="elQRYcjludwM-4nkRHjC-36" value="" style="shape=link;html=1;rounded=0;exitX=0.471;exitY=1.032;exitDx=0;exitDy=0;exitPerimeter=0;entryX=0.5;entryY=0;entryDx=0;entryDy=0;" edge="1" parent="1" source="elQRYcjludwM-4nkRHjC-2" target="elQRYcjludwM-4nkRHjC-30">
          <mxGeometry width="100" relative="1" as="geometry">
            <mxPoint x="2420" y="480" as="sourcePoint" />
            <mxPoint x="2480" y="540" as="targetPoint" />
          </mxGeometry>
        </mxCell>
        <mxCell id="elQRYcjludwM-4nkRHjC-37" value="" style="edgeStyle=none;orthogonalLoop=1;jettySize=auto;html=1;endArrow=none;endFill=0;curved=1;targetPerimeterSpacing=0;movable=1;resizable=1;rotatable=1;deletable=1;editable=1;locked=0;connectable=1;" edge="1" parent="1">
          <mxGeometry width="80" relative="1" as="geometry">
            <mxPoint x="2485" y="588" as="sourcePoint" />
            <mxPoint x="2465" y="588" as="targetPoint" />
            <Array as="points">
              <mxPoint x="2485" y="588" />
              <mxPoint x="2495" y="628" />
              <mxPoint x="2475" y="608" />
            </Array>
          </mxGeometry>
        </mxCell>
        <mxCell id="elQRYcjludwM-4nkRHjC-38" value="" style="edgeStyle=none;orthogonalLoop=1;jettySize=auto;html=1;endArrow=none;endFill=0;curved=1;targetPerimeterSpacing=0;movable=1;resizable=1;rotatable=1;deletable=1;editable=1;locked=0;connectable=1;" edge="1" parent="1">
          <mxGeometry width="80" relative="1" as="geometry">
            <mxPoint x="2400" y="588" as="sourcePoint" />
            <mxPoint x="2420" y="588" as="targetPoint" />
            <Array as="points">
              <mxPoint x="2400" y="588" />
              <mxPoint x="2390" y="628" />
              <mxPoint x="2410" y="608" />
            </Array>
          </mxGeometry>
        </mxCell>
        <mxCell id="elQRYcjludwM-4nkRHjC-39" value="&lt;u&gt;Passenger_id&lt;/u&gt;" style="ellipse;whiteSpace=wrap;html=1;" vertex="1" parent="1">
          <mxGeometry x="990" y="410" width="80" height="40" as="geometry" />
        </mxCell>
        <mxCell id="elQRYcjludwM-4nkRHjC-40" value="Name" style="ellipse;whiteSpace=wrap;html=1;" vertex="1" parent="1">
          <mxGeometry x="940" y="333" width="80" height="40" as="geometry" />
        </mxCell>
        <mxCell id="elQRYcjludwM-4nkRHjC-41" value="Age" style="ellipse;whiteSpace=wrap;html=1;" vertex="1" parent="1">
          <mxGeometry x="960" y="283" width="70" height="30" as="geometry" />
        </mxCell>
        <mxCell id="elQRYcjludwM-4nkRHjC-42" value="Type" style="ellipse;whiteSpace=wrap;html=1;" vertex="1" parent="1">
          <mxGeometry x="1040" y="267.5" width="70" height="30" as="geometry" />
        </mxCell>
        <mxCell id="elQRYcjludwM-4nkRHjC-43" value="Gender" style="ellipse;whiteSpace=wrap;html=1;" vertex="1" parent="1">
          <mxGeometry x="1120" y="265" width="75" height="30" as="geometry" />
        </mxCell>
        <mxCell id="elQRYcjludwM-4nkRHjC-44" value="" style="endArrow=none;html=1;rounded=0;exitX=0;exitY=0.5;exitDx=0;exitDy=0;" edge="1" parent="1" source="elQRYcjludwM-4nkRHjC-18">
          <mxGeometry width="50" height="50" relative="1" as="geometry">
            <mxPoint x="1220" y="420" as="sourcePoint" />
            <mxPoint x="1040" y="410" as="targetPoint" />
          </mxGeometry>
        </mxCell>
        <mxCell id="elQRYcjludwM-4nkRHjC-45" value="" style="endArrow=none;html=1;rounded=0;exitX=0;exitY=0.25;exitDx=0;exitDy=0;" edge="1" parent="1" source="elQRYcjludwM-4nkRHjC-18">
          <mxGeometry width="50" height="50" relative="1" as="geometry">
            <mxPoint x="1070" y="330" as="sourcePoint" />
            <mxPoint x="1020" y="353" as="targetPoint" />
          </mxGeometry>
        </mxCell>
        <mxCell id="elQRYcjludwM-4nkRHjC-46" value="" style="endArrow=none;html=1;rounded=0;exitX=0;exitY=0;exitDx=0;exitDy=0;entryX=1;entryY=1;entryDx=0;entryDy=0;" edge="1" parent="1" source="elQRYcjludwM-4nkRHjC-18" target="elQRYcjludwM-4nkRHjC-41">
          <mxGeometry width="50" height="50" relative="1" as="geometry">
            <mxPoint x="1090" y="350" as="sourcePoint" />
            <mxPoint x="1010" y="338" as="targetPoint" />
          </mxGeometry>
        </mxCell>
        <mxCell id="elQRYcjludwM-4nkRHjC-47" value="" style="endArrow=none;html=1;rounded=0;entryX=0.5;entryY=1;entryDx=0;entryDy=0;" edge="1" parent="1" source="elQRYcjludwM-4nkRHjC-18" target="elQRYcjludwM-4nkRHjC-42">
          <mxGeometry width="50" height="50" relative="1" as="geometry">
            <mxPoint x="1100" y="360" as="sourcePoint" />
            <mxPoint x="1020" y="348" as="targetPoint" />
          </mxGeometry>
        </mxCell>
        <mxCell id="elQRYcjludwM-4nkRHjC-48" value="" style="endArrow=none;html=1;rounded=0;exitX=0.803;exitY=-0.025;exitDx=0;exitDy=0;entryX=0.5;entryY=1;entryDx=0;entryDy=0;exitPerimeter=0;" edge="1" parent="1" source="elQRYcjludwM-4nkRHjC-18" target="elQRYcjludwM-4nkRHjC-43">
          <mxGeometry width="50" height="50" relative="1" as="geometry">
            <mxPoint x="1110" y="370" as="sourcePoint" />
            <mxPoint x="1030" y="358" as="targetPoint" />
          </mxGeometry>
        </mxCell>
        <mxCell id="elQRYcjludwM-4nkRHjC-49" value="total_amount" style="ellipse;whiteSpace=wrap;html=1;" vertex="1" parent="1">
          <mxGeometry x="1500" y="275" width="90" height="20" as="geometry" />
        </mxCell>
        <mxCell id="elQRYcjludwM-4nkRHjC-50" value="&lt;u&gt;card_id&lt;/u&gt;" style="ellipse;whiteSpace=wrap;html=1;" vertex="1" parent="1">
          <mxGeometry x="1385" y="275" width="90" height="30" as="geometry" />
        </mxCell>
        <mxCell id="elQRYcjludwM-4nkRHjC-51" value="" style="endArrow=none;html=1;rounded=0;exitX=0.5;exitY=1;exitDx=0;exitDy=0;entryX=0;entryY=0;entryDx=0;entryDy=0;" edge="1" parent="1" source="elQRYcjludwM-4nkRHjC-50" target="elQRYcjludwM-4nkRHjC-19">
          <mxGeometry width="50" height="50" relative="1" as="geometry">
            <mxPoint x="1080" y="340" as="sourcePoint" />
            <mxPoint x="1000" y="328" as="targetPoint" />
          </mxGeometry>
        </mxCell>
        <mxCell id="elQRYcjludwM-4nkRHjC-52" value="" style="endArrow=none;html=1;rounded=0;exitX=0.293;exitY=1.117;exitDx=0;exitDy=0;entryX=0.5;entryY=0;entryDx=0;entryDy=0;exitPerimeter=0;" edge="1" parent="1" source="elQRYcjludwM-4nkRHjC-49" target="elQRYcjludwM-4nkRHjC-19">
          <mxGeometry width="50" height="50" relative="1" as="geometry">
            <mxPoint x="1440" y="315" as="sourcePoint" />
            <mxPoint x="1460" y="338" as="targetPoint" />
          </mxGeometry>
        </mxCell>
        <mxCell id="elQRYcjludwM-4nkRHjC-53" value="Location" style="ellipse;whiteSpace=wrap;html=1;" vertex="1" parent="1">
          <mxGeometry x="1500" y="403" width="105" height="35.5" as="geometry" />
        </mxCell>
        <mxCell id="elQRYcjludwM-4nkRHjC-54" value="&lt;u&gt;Card_id&lt;/u&gt;" style="ellipse;whiteSpace=wrap;html=1;" vertex="1" parent="1">
          <mxGeometry x="1385" y="275" width="90" height="30" as="geometry" />
        </mxCell>
        <mxCell id="elQRYcjludwM-4nkRHjC-55" value="&lt;u&gt;Hub_id&lt;/u&gt;" style="ellipse;whiteSpace=wrap;html=1;" vertex="1" parent="1">
          <mxGeometry x="1600" y="230.25" width="105" height="35.5" as="geometry" />
        </mxCell>
        <mxCell id="elQRYcjludwM-4nkRHjC-56" value="Name" style="ellipse;whiteSpace=wrap;html=1;" vertex="1" parent="1">
          <mxGeometry x="1715" y="235.5" width="90" height="27.5" as="geometry" />
        </mxCell>
        <mxCell id="elQRYcjludwM-4nkRHjC-57" value="" style="endArrow=none;html=1;rounded=0;exitX=0;exitY=0.75;exitDx=0;exitDy=0;entryX=0.5;entryY=0;entryDx=0;entryDy=0;" edge="1" parent="1" source="elQRYcjludwM-4nkRHjC-1" target="elQRYcjludwM-4nkRHjC-53">
          <mxGeometry width="50" height="50" relative="1" as="geometry">
            <mxPoint x="1440" y="315" as="sourcePoint" />
            <mxPoint x="1460" y="338" as="targetPoint" />
          </mxGeometry>
        </mxCell>
        <mxCell id="elQRYcjludwM-4nkRHjC-58" value="" style="endArrow=none;html=1;rounded=0;exitX=0.435;exitY=0.967;exitDx=0;exitDy=0;entryX=0.25;entryY=0;entryDx=0;entryDy=0;exitPerimeter=0;" edge="1" parent="1" source="elQRYcjludwM-4nkRHjC-55" target="elQRYcjludwM-4nkRHjC-1">
          <mxGeometry width="50" height="50" relative="1" as="geometry">
            <mxPoint x="1450" y="325" as="sourcePoint" />
            <mxPoint x="1470" y="348" as="targetPoint" />
          </mxGeometry>
        </mxCell>
        <mxCell id="elQRYcjludwM-4nkRHjC-59" value="" style="endArrow=none;html=1;rounded=0;exitX=0.5;exitY=1;exitDx=0;exitDy=0;entryX=0.75;entryY=0;entryDx=0;entryDy=0;" edge="1" parent="1" source="elQRYcjludwM-4nkRHjC-56" target="elQRYcjludwM-4nkRHjC-1">
          <mxGeometry width="50" height="50" relative="1" as="geometry">
            <mxPoint x="1460" y="335" as="sourcePoint" />
            <mxPoint x="1480" y="358" as="targetPoint" />
          </mxGeometry>
        </mxCell>
        <mxCell id="elQRYcjludwM-4nkRHjC-60" value="&lt;u&gt;Ride_id&lt;/u&gt;" style="ellipse;whiteSpace=wrap;html=1;" vertex="1" parent="1">
          <mxGeometry x="2000" y="265.75" width="110" height="45" as="geometry" />
        </mxCell>
        <mxCell id="elQRYcjludwM-4nkRHjC-61" value="" style="endArrow=none;html=1;rounded=0;exitX=0.5;exitY=1;exitDx=0;exitDy=0;entryX=0.5;entryY=0;entryDx=0;entryDy=0;" edge="1" parent="1" source="elQRYcjludwM-4nkRHjC-60" target="elQRYcjludwM-4nkRHjC-3">
          <mxGeometry width="50" height="50" relative="1" as="geometry">
            <mxPoint x="1666" y="324" as="sourcePoint" />
            <mxPoint x="1660" y="350" as="targetPoint" />
          </mxGeometry>
        </mxCell>
        <mxCell id="elQRYcjludwM-4nkRHjC-62" value="" style="shape=link;html=1;rounded=0;entryX=0;entryY=0.5;entryDx=0;entryDy=0;exitX=1;exitY=0.5;exitDx=0;exitDy=0;" edge="1" parent="1" source="elQRYcjludwM-4nkRHjC-3" target="elQRYcjludwM-4nkRHjC-4">
          <mxGeometry width="100" relative="1" as="geometry">
            <mxPoint x="2060" y="500" as="sourcePoint" />
            <mxPoint x="2160" y="500" as="targetPoint" />
          </mxGeometry>
        </mxCell>
        <mxCell id="elQRYcjludwM-4nkRHjC-63" value="1" style="text;html=1;align=center;verticalAlign=middle;resizable=0;points=[];autosize=1;strokeColor=none;fillColor=none;" vertex="1" parent="1">
          <mxGeometry x="2270" y="400" width="30" height="30" as="geometry" />
        </mxCell>
        <mxCell id="elQRYcjludwM-4nkRHjC-64" value="N" style="text;html=1;align=center;verticalAlign=middle;resizable=0;points=[];autosize=1;strokeColor=none;fillColor=none;" vertex="1" parent="1">
          <mxGeometry x="2185" y="388" width="30" height="30" as="geometry" />
        </mxCell>
        <mxCell id="elQRYcjludwM-4nkRHjC-65" value="Ride_price" style="ellipse;whiteSpace=wrap;html=1;dashed=1;" vertex="1" parent="1">
          <mxGeometry x="2130" y="283" width="110" height="45" as="geometry" />
        </mxCell>
        <mxCell id="elQRYcjludwM-4nkRHjC-66" value="" style="endArrow=none;html=1;rounded=0;exitX=0;exitY=1;exitDx=0;exitDy=0;entryX=0.899;entryY=0.01;entryDx=0;entryDy=0;entryPerimeter=0;" edge="1" parent="1" source="elQRYcjludwM-4nkRHjC-65" target="elQRYcjludwM-4nkRHjC-3">
          <mxGeometry width="50" height="50" relative="1" as="geometry">
            <mxPoint x="2040" y="316" as="sourcePoint" />
            <mxPoint x="2045" y="350" as="targetPoint" />
          </mxGeometry>
        </mxCell>
        <mxCell id="elQRYcjludwM-4nkRHjC-67" value="Vehicle_type" style="ellipse;whiteSpace=wrap;html=1;" vertex="1" parent="1">
          <mxGeometry x="2420" y="328" width="90" height="28" as="geometry" />
        </mxCell>
        <mxCell id="elQRYcjludwM-4nkRHjC-68" value="" style="endArrow=none;html=1;rounded=0;exitX=0.5;exitY=1;exitDx=0;exitDy=0;entryX=0.633;entryY=0;entryDx=0;entryDy=0;entryPerimeter=0;" edge="1" parent="1" source="elQRYcjludwM-4nkRHjC-67" target="elQRYcjludwM-4nkRHjC-2">
          <mxGeometry width="50" height="50" relative="1" as="geometry">
            <mxPoint x="2250" y="393" as="sourcePoint" />
            <mxPoint x="2385" y="443" as="targetPoint" />
          </mxGeometry>
        </mxCell>
        <mxCell id="elQRYcjludwM-4nkRHjC-69" value="&lt;u&gt;Vehicle_id&lt;/u&gt;" style="ellipse;whiteSpace=wrap;html=1;" vertex="1" parent="1">
          <mxGeometry x="2510" y="360" width="90" height="28" as="geometry" />
        </mxCell>
        <mxCell id="elQRYcjludwM-4nkRHjC-70" value="" style="endArrow=none;html=1;rounded=0;exitX=0.5;exitY=1;exitDx=0;exitDy=0;entryX=1;entryY=0.5;entryDx=0;entryDy=0;" edge="1" parent="1" source="elQRYcjludwM-4nkRHjC-69" target="elQRYcjludwM-4nkRHjC-2">
          <mxGeometry width="50" height="50" relative="1" as="geometry">
            <mxPoint x="2465" y="378" as="sourcePoint" />
            <mxPoint x="2450" y="403" as="targetPoint" />
          </mxGeometry>
        </mxCell>
        <mxCell id="elQRYcjludwM-4nkRHjC-71" value="Departure_datetime" style="ellipse;whiteSpace=wrap;html=1;" vertex="1" parent="1">
          <mxGeometry x="1840" y="260" width="110" height="45" as="geometry" />
        </mxCell>
        <mxCell id="elQRYcjludwM-4nkRHjC-72" value="Arrival_datetime" style="ellipse;whiteSpace=wrap;html=1;" vertex="1" parent="1">
          <mxGeometry x="1790" y="540" width="110" height="45" as="geometry" />
        </mxCell>
        <mxCell id="elQRYcjludwM-4nkRHjC-73" value="" style="endArrow=none;html=1;rounded=0;exitX=0.304;exitY=0.947;exitDx=0;exitDy=0;entryX=0.5;entryY=0;entryDx=0;entryDy=0;exitPerimeter=0;" edge="1" parent="1" source="elQRYcjludwM-4nkRHjC-71" target="elQRYcjludwM-4nkRHjC-8">
          <mxGeometry width="50" height="50" relative="1" as="geometry">
            <mxPoint x="1770" y="273" as="sourcePoint" />
            <mxPoint x="1705" y="350" as="targetPoint" />
          </mxGeometry>
        </mxCell>
        <mxCell id="elQRYcjludwM-4nkRHjC-74" value="" style="endArrow=none;html=1;rounded=0;exitX=0.5;exitY=0;exitDx=0;exitDy=0;entryX=0.5;entryY=1;entryDx=0;entryDy=0;" edge="1" parent="1" source="elQRYcjludwM-4nkRHjC-72" target="elQRYcjludwM-4nkRHjC-13">
          <mxGeometry width="50" height="50" relative="1" as="geometry">
            <mxPoint x="1780" y="283" as="sourcePoint" />
            <mxPoint x="1715" y="360" as="targetPoint" />
          </mxGeometry>
        </mxCell>
        <mxCell id="elQRYcjludwM-4nkRHjC-75" value="Moped_model" style="ellipse;whiteSpace=wrap;html=1;" vertex="1" parent="1">
          <mxGeometry x="2260" y="620" width="90" height="40" as="geometry" />
        </mxCell>
        <mxCell id="elQRYcjludwM-4nkRHjC-76" value="" style="endArrow=none;html=1;rounded=0;entryX=0.5;entryY=1;entryDx=0;entryDy=0;exitX=0;exitY=0.25;exitDx=0;exitDy=0;" edge="1" parent="1" source="elQRYcjludwM-4nkRHjC-33" target="elQRYcjludwM-4nkRHjC-75">
          <mxGeometry width="50" height="50" relative="1" as="geometry">
            <mxPoint x="2367" y="710" as="sourcePoint" />
            <mxPoint x="2434" y="564" as="targetPoint" />
          </mxGeometry>
        </mxCell>
        <mxCell id="elQRYcjludwM-4nkRHjC-77" value="Scooter_model" style="ellipse;whiteSpace=wrap;html=1;" vertex="1" parent="1">
          <mxGeometry x="2570" y="600" width="90" height="40" as="geometry" />
        </mxCell>
        <mxCell id="elQRYcjludwM-4nkRHjC-78" value="" style="endArrow=none;html=1;rounded=0;entryX=0.5;entryY=1;entryDx=0;entryDy=0;exitX=1;exitY=0;exitDx=0;exitDy=0;" edge="1" parent="1" source="elQRYcjludwM-4nkRHjC-32" target="elQRYcjludwM-4nkRHjC-77">
          <mxGeometry width="50" height="50" relative="1" as="geometry">
            <mxPoint x="2330" y="719" as="sourcePoint" />
            <mxPoint x="2315" y="670" as="targetPoint" />
          </mxGeometry>
        </mxCell>
        <mxCell id="elQRYcjludwM-4nkRHjC-79" value="price_per_minute" style="ellipse;whiteSpace=wrap;html=1;" vertex="1" parent="1">
          <mxGeometry x="2240" y="333" width="110" height="45" as="geometry" />
        </mxCell>
        <mxCell id="elQRYcjludwM-4nkRHjC-80" value="" style="endArrow=none;html=1;rounded=0;entryX=0.142;entryY=0.006;entryDx=0;entryDy=0;entryPerimeter=0;exitX=1;exitY=1;exitDx=0;exitDy=0;" edge="1" parent="1" source="elQRYcjludwM-4nkRHjC-79" target="elQRYcjludwM-4nkRHjC-2">
          <mxGeometry width="50" height="50" relative="1" as="geometry">
            <mxPoint x="2340" y="380" as="sourcePoint" />
            <mxPoint x="2335" y="405" as="targetPoint" />
          </mxGeometry>
        </mxCell>
        <mxCell id="elQRYcjludwM-4nkRHjC-81" value="SEARCH_HISTORY" style="rhombus;whiteSpace=wrap;html=1;" vertex="1" parent="1">
          <mxGeometry x="1780" y="50" width="140" height="80" as="geometry" />
        </mxCell>
        <mxCell id="elQRYcjludwM-4nkRHjC-82" value="" style="endArrow=none;html=1;rounded=0;exitX=1;exitY=0.25;exitDx=0;exitDy=0;entryX=0;entryY=0.5;entryDx=0;entryDy=0;" edge="1" parent="1" source="elQRYcjludwM-4nkRHjC-18" target="elQRYcjludwM-4nkRHjC-81">
          <mxGeometry width="50" height="50" relative="1" as="geometry">
            <mxPoint x="1300" y="90" as="sourcePoint" />
            <mxPoint x="1775" y="540" as="targetPoint" />
          </mxGeometry>
        </mxCell>
        <mxCell id="elQRYcjludwM-4nkRHjC-83" value="M" style="text;html=1;align=center;verticalAlign=middle;resizable=0;points=[];autosize=1;strokeColor=none;fillColor=none;" vertex="1" parent="1">
          <mxGeometry x="1750" y="70" width="30" height="30" as="geometry" />
        </mxCell>
        <mxCell id="elQRYcjludwM-4nkRHjC-84" value="" style="endArrow=none;html=1;rounded=0;exitX=1;exitY=0.5;exitDx=0;exitDy=0;entryX=0.5;entryY=0;entryDx=0;entryDy=0;" edge="1" parent="1" source="elQRYcjludwM-4nkRHjC-81" target="elQRYcjludwM-4nkRHjC-2">
          <mxGeometry width="50" height="50" relative="1" as="geometry">
            <mxPoint x="1840" y="70" as="sourcePoint" />
            <mxPoint x="2260" y="-200" as="targetPoint" />
          </mxGeometry>
        </mxCell>
        <mxCell id="elQRYcjludwM-4nkRHjC-85" value="N" style="text;html=1;align=center;verticalAlign=middle;resizable=0;points=[];autosize=1;strokeColor=none;fillColor=none;" vertex="1" parent="1">
          <mxGeometry x="1920" y="70" width="30" height="30" as="geometry" />
        </mxCell>
        <mxCell id="elQRYcjludwM-4nkRHjC-86" value="" style="endArrow=none;html=1;rounded=0;exitX=1;exitY=0.5;exitDx=0;exitDy=0;entryX=0;entryY=0.5;entryDx=0;entryDy=0;" edge="1" parent="1" source="elQRYcjludwM-4nkRHjC-30" target="elQRYcjludwM-4nkRHjC-87">
          <mxGeometry width="50" height="50" relative="1" as="geometry">
            <mxPoint x="1955" y="670" as="sourcePoint" />
            <mxPoint x="2685" y="550" as="targetPoint" />
          </mxGeometry>
        </mxCell>
        <mxCell id="elQRYcjludwM-4nkRHjC-87" value="CAR" style="rounded=0;whiteSpace=wrap;html=1;" vertex="1" parent="1">
          <mxGeometry x="2715" y="545" width="80" height="35" as="geometry" />
        </mxCell>
        <mxCell id="elQRYcjludwM-4nkRHjC-88" value="Car_model" style="ellipse;whiteSpace=wrap;html=1;" vertex="1" parent="1">
          <mxGeometry x="2835" y="518" width="80" height="40" as="geometry" />
        </mxCell>
        <mxCell id="elQRYcjludwM-4nkRHjC-89" value="" style="endArrow=none;html=1;rounded=0;entryX=1;entryY=0;entryDx=0;entryDy=0;exitX=0;exitY=0;exitDx=0;exitDy=0;" edge="1" parent="1" source="elQRYcjludwM-4nkRHjC-88" target="elQRYcjludwM-4nkRHjC-87">
          <mxGeometry width="50" height="50" relative="1" as="geometry">
            <mxPoint x="2737" y="245" as="sourcePoint" />
            <mxPoint x="2780" y="180" as="targetPoint" />
          </mxGeometry>
        </mxCell>
        <mxCell id="elQRYcjludwM-4nkRHjC-90" value="Engine_serial_number" style="ellipse;whiteSpace=wrap;html=1;" vertex="1" parent="1">
          <mxGeometry x="2675" y="453" width="130" height="50" as="geometry" />
        </mxCell>
        <mxCell id="elQRYcjludwM-4nkRHjC-91" value="" style="endArrow=none;html=1;rounded=0;exitX=0.5;exitY=1;exitDx=0;exitDy=0;entryX=0.25;entryY=0;entryDx=0;entryDy=0;" edge="1" parent="1" source="elQRYcjludwM-4nkRHjC-90" target="elQRYcjludwM-4nkRHjC-87">
          <mxGeometry width="50" height="50" relative="1" as="geometry">
            <mxPoint x="2460" y="553" as="sourcePoint" />
            <mxPoint x="2725" y="573" as="targetPoint" />
          </mxGeometry>
        </mxCell>
        <mxCell id="elQRYcjludwM-4nkRHjC-92" value="" style="endArrow=none;html=1;rounded=0;edgeStyle=orthogonalEdgeStyle;curved=1;" edge="1" parent="1">
          <mxGeometry width="50" height="50" relative="1" as="geometry">
            <mxPoint x="2530" y="560" as="sourcePoint" />
            <mxPoint x="2530" y="540" as="targetPoint" />
            <Array as="points">
              <mxPoint x="2550" y="560" />
              <mxPoint x="2550" y="540" />
              <mxPoint x="2530" y="540" />
            </Array>
          </mxGeometry>
        </mxCell>
      </root>
    </mxGraphModel>
  </diagram>
</mxfile>
